<svg xmlns="http://www.w3.org/2000/svg" viewBox="0 0 80 80" class="mdl-js">
    <path fill="white" style="line-height:normal;text-indent:0;text-align:start;text-decoration-line:none;text-decoration-style:solid;text-decoration-color:#000;text-transform:none;block-progression:tb;isolation:auto;mix-blend-mode:normal" d="M 47.029297 7.0078125 C 46.713185 7.0239112 46.393705 7.071647 46.076172 7.1542969 L 18.677734 14.289062 C 16.13737 14.950289 14.598567 17.571065 15.259766 20.111328 L 28.099609 69.427734 C 28.760745 71.969014 31.383864 73.506824 33.923828 72.845703 L 61.320312 65.712891 C 63.860847 65.05069 65.400606 62.429684 64.738281 59.888672 L 51.900391 10.572266 C 51.404472 8.6669912 49.804995 7.3256284 47.964844 7.0527344 C 47.658152 7.007252 47.345409 6.9917138 47.029297 7.0078125 z M 47.138672 9.0019531 C 48.432215 8.930631 49.624666 9.7692409 49.964844 11.076172 L 50.238281 12.123047 L 17.46875 20.654297 L 17.195312 19.607422 C 16.806511 18.113685 17.688005 16.613384 19.181641 16.224609 L 46.580078 9.0898438 C 46.766795 9.0412435 46.95388 9.012142 47.138672 9.0019531 z M 50.742188 14.058594 L 61.125 53.945312 L 28.357422 62.476562 L 17.972656 22.589844 L 50.742188 14.058594 z M 60.28125 14.46875 L 59.386719 14.539062 L 58.908203 15.296875 L 58.935547 15.648438 L 58.960938 15.744141 L 59.550781 16.417969 L 60.443359 16.349609 L 60.923828 15.591797 L 60.896484 15.240234 L 60.871094 15.144531 L 60.28125 14.46875 z M 67.113281 15.671875 L 66.220703 15.742188 L 65.742188 16.498047 L 65.769531 16.849609 L 65.794922 16.947266 L 66.384766 17.621094 L 67.277344 17.550781 L 67.755859 16.794922 L 67.730469 16.443359 L 67.705078 16.345703 L 67.113281 15.671875 z M 61.3125 18.4375 L 60.419922 18.505859 L 59.941406 19.263672 L 59.96875 19.615234 L 59.994141 19.712891 L 60.583984 20.386719 L 61.476562 20.316406 L 61.957031 19.558594 L 61.929688 19.208984 L 61.904297 19.111328 L 61.3125 18.4375 z M 68.146484 19.640625 L 67.253906 19.708984 L 66.775391 20.466797 L 66.802734 20.818359 L 66.826172 20.914062 L 67.417969 21.587891 L 68.310547 21.519531 L 68.789062 20.761719 L 68.761719 20.410156 L 68.738281 20.314453 L 68.146484 19.640625 z M 62.345703 22.404297 L 61.453125 22.474609 L 60.974609 23.232422 L 61.001953 23.582031 L 61.027344 23.679688 L 61.617188 24.353516 L 62.509766 24.285156 L 62.988281 23.527344 L 62.962891 23.175781 L 62.9375 23.078125 L 62.345703 22.404297 z M 69.179688 23.607422 L 68.287109 23.677734 L 67.806641 24.433594 L 67.833984 24.785156 L 67.859375 24.882812 L 68.451172 25.556641 L 69.34375 25.486328 L 69.822266 24.730469 L 69.794922 24.378906 L 69.769531 24.28125 L 69.179688 23.607422 z M 63.378906 26.373047 L 62.486328 26.441406 L 62.007812 27.199219 L 62.035156 27.550781 L 62.058594 27.648438 L 62.650391 28.322266 L 63.542969 28.251953 L 64.021484 27.494141 L 63.994141 27.144531 L 63.96875 27.046875 L 63.378906 26.373047 z M 70.212891 27.576172 L 69.320312 27.644531 L 68.839844 28.402344 L 68.867188 28.753906 L 68.892578 28.849609 L 69.484375 29.523438 L 70.376953 29.455078 L 70.855469 28.697266 L 70.828125 28.345703 L 70.802734 28.25 L 70.212891 27.576172 z M 11.623047 27.837891 L 10.730469 27.90625 L 10.25 28.664062 L 10.277344 29.015625 L 10.302734 29.111328 L 10.894531 29.785156 L 11.787109 29.716797 L 12.265625 28.958984 L 12.238281 28.607422 L 12.212891 28.511719 L 11.623047 27.837891 z M 64.412109 30.339844 L 63.519531 30.410156 L 63.039062 31.167969 L 63.066406 31.517578 L 63.091797 31.615234 L 63.683594 32.289062 L 64.576172 32.220703 L 65.054688 31.462891 L 65.027344 31.111328 L 65.001953 31.013672 L 64.412109 30.339844 z M 71.246094 31.542969 L 70.353516 31.613281 L 69.873047 32.369141 L 69.900391 32.720703 L 69.925781 32.818359 L 70.515625 33.492188 L 71.410156 33.421875 L 71.888672 32.666016 L 71.861328 32.314453 L 71.835938 32.216797 L 71.246094 31.542969 z M 12.65625 31.804688 L 11.763672 31.875 L 11.283203 32.630859 L 11.310547 32.982422 L 11.335938 33.080078 L 11.925781 33.753906 L 12.820312 33.683594 L 13.298828 32.927734 L 13.271484 32.576172 L 13.246094 32.478516 L 12.65625 31.804688 z M 65.445312 34.308594 L 64.552734 34.376953 L 64.072266 35.134766 L 64.099609 35.486328 L 64.125 35.582031 L 64.714844 36.257812 L 65.609375 36.1875 L 66.087891 35.429688 L 66.060547 35.078125 L 66.035156 34.982422 L 65.445312 34.308594 z M 6.8554688 34.570312 L 5.9628906 34.638672 L 5.4824219 35.396484 L 5.5097656 35.748047 L 5.5351562 35.845703 L 6.125 36.519531 L 7.0195312 36.449219 L 7.4980469 35.691406 L 7.4707031 35.339844 L 7.4453125 35.244141 L 6.8554688 34.570312 z M 72.279297 35.509766 L 71.386719 35.580078 L 70.90625 36.337891 L 70.933594 36.689453 L 70.958984 36.785156 L 71.548828 37.458984 L 72.443359 37.390625 L 72.921875 36.632812 L 72.894531 36.28125 L 72.869141 36.185547 L 72.279297 35.509766 z M 13.689453 35.771484 L 12.796875 35.841797 L 12.316406 36.599609 L 12.34375 36.951172 L 12.369141 37.046875 L 12.958984 37.720703 L 13.853516 37.652344 L 14.332031 36.894531 L 14.304688 36.542969 L 14.279297 36.447266 L 13.689453 35.771484 z M 66.478516 38.275391 L 65.585938 38.345703 L 65.105469 39.103516 L 65.132812 39.453125 L 65.158203 39.550781 L 65.748047 40.224609 L 66.642578 40.15625 L 67.121094 39.398438 L 67.09375 39.046875 L 67.068359 38.949219 L 66.478516 38.275391 z M 7.8886719 38.537109 L 6.9941406 38.607422 L 6.515625 39.365234 L 6.5429688 39.714844 L 6.5683594 39.8125 L 7.1582031 40.486328 L 8.0527344 40.417969 L 8.53125 39.660156 L 8.5039062 39.308594 L 8.4785156 39.210938 L 7.8886719 38.537109 z M 73.3125 39.478516 L 72.417969 39.548828 L 71.939453 40.304688 L 71.966797 40.65625 L 71.992188 40.753906 L 72.582031 41.427734 L 73.476562 41.357422 L 73.955078 40.601562 L 73.927734 40.25 L 73.902344 40.152344 L 73.3125 39.478516 z M 14.722656 39.740234 L 13.828125 39.810547 L 13.349609 40.566406 L 13.376953 40.917969 L 13.402344 41.015625 L 13.992188 41.689453 L 14.886719 41.619141 L 15.365234 40.863281 L 15.337891 40.511719 L 15.3125 40.414062 L 14.722656 39.740234 z M 67.511719 42.244141 L 66.617188 42.3125 L 66.138672 43.070312 L 66.166016 43.421875 L 66.191406 43.517578 L 66.78125 44.193359 L 67.675781 44.123047 L 68.154297 43.365234 L 68.126953 43.013672 L 68.101562 42.917969 L 67.511719 42.244141 z M 8.921875 42.505859 L 8.0273438 42.574219 L 7.5488281 43.332031 L 7.5761719 43.683594 L 7.6015625 43.779297 L 8.1914062 44.455078 L 9.0859375 44.384766 L 9.5644531 43.626953 L 9.5371094 43.275391 L 9.5117188 43.179688 L 8.921875 42.505859 z M 74.345703 43.445312 L 73.451172 43.515625 L 72.972656 44.273438 L 73 44.625 L 73.025391 44.720703 L 73.615234 45.394531 L 74.509766 45.326172 L 74.988281 44.568359 L 74.960938 44.216797 L 74.935547 44.121094 L 74.345703 43.445312 z M 15.755859 43.707031 L 14.861328 43.777344 L 14.382812 44.535156 L 14.410156 44.886719 L 14.435547 44.982422 L 15.025391 45.65625 L 15.919922 45.587891 L 16.398438 44.830078 L 16.371094 44.478516 L 16.345703 44.382812 L 15.755859 43.707031 z M 68.544922 46.210938 L 67.650391 46.28125 L 67.171875 47.037109 L 67.199219 47.388672 L 67.224609 47.486328 L 67.814453 48.160156 L 68.707031 48.091797 L 69.1875 47.333984 L 69.160156 46.982422 L 69.134766 46.884766 L 68.544922 46.210938 z M 9.9550781 46.472656 L 9.0605469 46.542969 L 8.5820312 47.298828 L 8.609375 47.650391 L 8.6347656 47.748047 L 9.2246094 48.421875 L 10.119141 48.353516 L 10.597656 47.595703 L 10.570312 47.244141 L 10.544922 47.146484 L 9.9550781 46.472656 z M 16.789062 47.675781 L 15.894531 47.744141 L 15.416016 48.501953 L 15.443359 48.853516 L 15.46875 48.951172 L 16.058594 49.625 L 16.951172 49.554688 L 17.431641 48.798828 L 17.404297 48.447266 L 17.378906 48.349609 L 16.789062 47.675781 z M 69.578125 50.179688 L 68.683594 50.248047 L 68.205078 51.005859 L 68.232422 51.357422 L 68.257812 51.453125 L 68.847656 52.128906 L 69.740234 52.058594 L 70.220703 51.300781 L 70.193359 50.949219 L 70.167969 50.853516 L 69.578125 50.179688 z M 10.988281 50.441406 L 10.09375 50.509766 L 9.6152344 51.267578 L 9.6425781 51.619141 L 9.6679688 51.714844 L 10.257812 52.390625 L 11.150391 52.320312 L 11.630859 51.5625 L 11.603516 51.210938 L 11.578125 51.115234 L 10.988281 50.441406 z M 17.820312 51.642578 L 16.927734 51.712891 L 16.449219 52.470703 L 16.476562 52.822266 L 16.501953 52.917969 L 17.091797 53.591797 L 17.984375 53.523438 L 18.464844 52.765625 L 18.4375 52.414062 L 18.412109 52.318359 L 17.820312 51.642578 z M 12.021484 54.408203 L 11.126953 54.478516 L 10.648438 55.234375 L 10.675781 55.585938 L 10.701172 55.683594 L 11.291016 56.357422 L 12.183594 56.287109 L 12.664062 55.53125 L 12.636719 55.179688 L 12.611328 55.082031 L 12.021484 54.408203 z M 18.853516 55.611328 L 17.960938 55.679688 L 17.482422 56.4375 L 17.509766 56.789062 L 17.535156 56.886719 L 18.125 57.560547 L 19.017578 57.490234 L 19.496094 56.734375 L 19.470703 56.382812 L 19.445312 56.285156 L 18.853516 55.611328 z M 61.628906 55.880859 L 62.802734 60.392578 C 63.192409 61.887566 62.311873 63.387544 60.816406 63.777344 L 33.419922 70.910156 C 31.925886 71.299035 30.424021 70.418549 30.035156 68.923828 L 28.861328 64.412109 L 61.628906 55.880859 z M 13.052734 58.376953 L 12.160156 58.445312 L 11.681641 59.203125 L 11.708984 59.554688 L 11.734375 59.650391 L 12.324219 60.324219 L 13.216797 60.255859 L 13.697266 59.498047 L 13.669922 59.146484 L 13.644531 59.050781 L 13.052734 58.376953 z M 19.886719 59.578125 L 18.994141 59.648438 L 18.515625 60.40625 L 18.542969 60.757812 L 18.566406 60.853516 L 19.158203 61.527344 L 20.050781 61.458984 L 20.529297 60.701172 L 20.501953 60.349609 L 20.478516 60.253906 L 19.886719 59.578125 z M 46.212891 61.855469 A 1.887 1.887 0 0 0 46.082031 61.857422 A 1.887 1.887 0 0 0 45.708984 61.916016 A 1.887 1.887 0 0 0 44.357422 64.216797 A 1.887 1.887 0 0 0 46.660156 65.568359 A 1.887 1.887 0 0 0 48.009766 63.265625 A 1.887 1.887 0 0 0 46.212891 61.855469 z M 14.085938 62.34375 L 13.193359 62.414062 L 12.714844 63.169922 L 12.742188 63.521484 L 12.767578 63.619141 L 13.357422 64.292969 L 14.25 64.222656 L 14.728516 63.466797 L 14.701172 63.115234 L 14.677734 63.017578 L 14.085938 62.34375 z M 20.919922 63.546875 L 20.027344 63.615234 L 19.546875 64.373047 L 19.574219 64.724609 L 19.599609 64.822266 L 20.191406 65.496094 L 21.083984 65.425781 L 21.5625 64.667969 L 21.535156 64.318359 L 21.509766 64.220703 L 20.919922 63.546875 z"/>
</svg>