<svg height="512pt" viewBox="0 0 512 512" width="512pt" xmlns="http://www.w3.org/2000/svg"><path d="m42.667969 59.734375h170.664062c18.851563 0 34.132813 15.28125 34.132813 34.132813v375.464843c0 18.851563-15.28125 34.132813-34.132813 34.132813h-170.664062c-18.851563 0-34.132813-15.28125-34.132813-34.132813v-375.464843c0-18.851563 15.28125-34.132813 34.132813-34.132813zm0 0" fill="#cad9fc"/><path d="m42.667969 59.734375h145.066406c18.851563 0 34.132813 15.28125 34.132813 34.132813v375.464843c0 18.851563-15.28125 34.132813-34.132813 34.132813h-145.066406c-18.851563 0-34.132813-15.28125-34.132813-34.132813v-375.464843c0-18.851563 15.28125-34.132813 34.132813-34.132813zm0 0" fill="#e8edfc"/><path d="m247.464844 162.132812v264.535157c0 18.851562-15.28125 34.132812-34.132813 34.132812h-170.664062c-1.109375 0-2.304688-.085937-3.414063-.171875-1.292968-.113281-2.574218-.316406-3.839844-.597656-.9375-.253906-1.792968-.425781-2.730468-.683594-.34375-.167968-.769532-.253906-1.195313-.425781-2.566406-.933594-5.023437-2.132813-7.339843-3.582031-6.347657-4.097656-11.152344-10.191406-13.652344-17.324219-.171875-.683594-.425782-1.28125-.597656-1.960937-.929688-3.042969-1.390626-6.207032-1.363282-9.386719v-264.535157c0-18.851562 15.28125-34.132812 34.132813-34.132812h170.664062c18.851563 0 34.132813 15.28125 34.132813 34.132812zm0 0" fill="#cad9fc"/><path d="m29.636719 128-21.101563 21.101562v-21.101562zm0 0" fill="#d3dff2"/><path d="m135.542969 128-127.007813 127.011719v-105.910157l21.101563-21.101562zm0 0" fill="#d3dff2"/><path d="m135.601562 128-127.066406 127.070312v-.058593l127.007813-127.011719zm0 0" fill="#d3dff2"/><path d="m135.664062 128-127.128906 127.128906v-.058594l127.066406-127.070312zm0 0" fill="#d8e1f2"/><path d="m135.722656 128-127.1875 127.1875v-.058594l127.128906-127.128906zm0 0" fill="#dce3f2"/><path d="m135.78125 128-127.246094 127.25v-.0625l127.1875-127.1875zm0 0" fill="#e0e5f2"/><path d="m135.84375 128-127.308594 127.308594v-.058594l127.246094-127.25zm0 0" fill="#e4e7f2"/><path d="m135.902344 128-127.367188 127.367188v-.058594l127.308594-127.308594zm0 0" fill="#e7e8f2"/><path d="m135.960938 128-127.425782 127.429688v-.0625l127.367188-127.367188zm0 0" fill="#eaeaf2"/><path d="m136.019531 128-127.484375 127.488281v-.058593l127.425782-127.429688zm0 0" fill="#edebf2"/><path d="m136.082031 128-127.546875 127.546875v-.058594l127.484375-127.488281zm0 0" fill="#efecf2"/><path d="m136.140625 128-127.605469 127.609375v-.0625l127.546875-127.546875zm0 0" fill="#f1edf2"/><path d="m136.199219 128-127.664063 127.667969v-.058594l127.605469-127.609375zm0 0" fill="#f3eef2"/><path d="m136.261719 128-127.726563 127.726562v-.058593l127.664063-127.667969zm0 0" fill="#f5eef2"/><path d="m136.320312 128-127.785156 127.785156v-.058594l127.726563-127.726562zm0 0" fill="#f6eff2"/><path d="m136.378906 128-127.84375 127.847656v-.0625l127.785156-127.785156zm0 0" fill="#f8f0f2"/><path d="m136.441406 128-127.90625 127.90625v-.058594l127.84375-127.847656zm0 0" fill="#f9f0f2"/><path d="m136.5 128-127.964844 127.964844v-.058594l127.90625-127.90625zm0 0" fill="#faf1f2"/><path d="m136.558594 128-128.023438 128.027344v-.0625l127.964844-127.964844zm0 0" fill="#fbf1f2"/><path d="m136.617188 128-128.082032 128.085938v-.058594l128.023438-128.027344zm0 0" fill="#fbf1f2"/><path d="m136.679688 128-128.144532 128.144531v-.058593l128.082032-128.085938zm0 0" fill="#fcf2f2"/><path d="m136.738281 128-128.203125 128.203125v-.058594l128.144532-128.144531zm0 0" fill="#fdf2f2"/><path d="m136.796875 128-128.261719 128.265625v-.0625l128.203125-128.203125zm0 0" fill="#fdf2f2"/><path d="m136.859375 128-128.324219 128.324219v-.058594l128.261719-128.265625zm0 0" fill="#fdf2f2"/><path d="m136.917969 128-128.382813 128.382812v-.058593l128.324219-128.324219zm0 0" fill="#fef2f2"/><path d="m136.976562 128-128.441406 128.445312v-.0625l128.382813-128.382812zm0 0" fill="#fef3f2"/><path d="m137.035156 128-128.5 128.503906v-.058594l128.441406-128.445312zm0 0" fill="#fef3f2"/><path d="m137.097656 128-128.5625 128.5625v-.058594l128.5-128.503906zm0 0" fill="#fef3f2"/><path d="m137.15625 128-128.621094 128.621094v-.058594l128.5625-128.5625zm0 0" fill="#fff3f2"/><path d="m137.214844 128-128.679688 128.683594v-.0625l128.621094-128.621094zm0 0" fill="#fff3f2"/><path d="m137.265625 128-128.730469 128.734375v-.050781l128.679688-128.683594zm0 0" fill="#fff3f2"/><path d="m137.328125 128-128.792969 128.792969v-.058594l128.730469-128.734375zm0 0" fill="#fff3f2"/><path d="m137.386719 128-128.851563 128.851562v-.058593l128.792969-128.792969zm0 0" fill="#fff3f2"/><path d="m137.445312 128-128.910156 128.914062v-.0625l128.851563-128.851562zm0 0" fill="#fff3f2"/><path d="m137.507812 128-128.972656 128.972656v-.058594l128.910156-128.914062zm0 0" fill="#fff3f2"/><path d="m137.566406 128-129.03125 129.03125v-.058594l128.972656-128.972656zm0 0" fill="#fff3f2"/><path d="m137.625 128-129.089844 129.09375v-.0625l129.03125-129.03125zm0 0" fill="#fff3f2"/><path d="m137.683594 128-129.148438 129.152344v-.058594l129.089844-129.09375zm0 0" fill="#fff3f2"/><path d="m137.746094 128-129.210938 129.210938v-.058594l129.148438-129.152344zm0 0" fill="#fff3f2"/><path d="m137.804688 128-129.269532 129.269531v-.058593l129.210938-129.210938zm0 0" fill="#fff3f2"/><path d="m137.863281 128-129.328125 129.332031v-.0625l129.269532-129.269531zm0 0" fill="#fff3f2"/><path d="m137.925781 128-129.390625 129.390625v-.058594l129.328125-129.332031zm0 0" fill="#fff3f2"/><path d="m137.984375 128-129.449219 129.449219v-.058594l129.390625-129.390625zm0 0" fill="#fff3f2"/><path d="m138.042969 128-129.507813 129.511719v-.0625l129.449219-129.449219zm0 0" fill="#fff3f2"/><path d="m138.101562 128-129.566406 129.570312v-.058593l129.507813-129.511719zm0 0" fill="#fff3f2"/><path d="m138.164062 128-129.628906 129.628906v-.058594l129.566406-129.570312zm0 0" fill="#fff3f2"/><path d="m167.3125 128-158.777344 158.78125v-29.152344l129.628906-129.628906zm0 0" fill="#fff3f2"/><path d="m167.3125 128-158.777344 158.78125zm0 0" fill="#fff3f2"/><path d="m167.3125 128-158.777344 158.78125zm0 0" fill="#fef3f2"/><path d="m167.3125 128-158.777344 158.78125zm0 0" fill="#fdf2f2"/><path d="m167.3125 128-158.777344 158.78125zm0 0" fill="#fcf2f2"/><path d="m167.3125 128-158.777344 158.78125zm0 0" fill="#fbf1f2"/><path d="m167.3125 128-158.777344 158.78125zm0 0" fill="#faf1f2"/><path d="m167.3125 128-158.777344 158.78125zm0 0" fill="#f9f0f2"/><path d="m167.3125 128-158.777344 158.78125zm0 0" fill="#f8f0f2"/><path d="m167.3125 128-158.777344 158.78125zm0 0" fill="#f7eff2"/><path d="m167.3125 128-158.777344 158.78125zm0 0" fill="#f6eff2"/><path d="m167.3125 128-158.777344 158.78125zm0 0" fill="#f5eef2"/><path d="m167.3125 128-158.777344 158.78125zm0 0" fill="#f4eef2"/><path d="m167.3125 128-158.777344 158.78125zm0 0" fill="#f3edf2"/><path d="m167.3125 128-158.777344 158.78125zm0 0" fill="#f2edf2"/><path d="m167.3125 128-158.777344 158.78125zm0 0" fill="#f1ecf2"/><path d="m167.3125 128-158.777344 158.78125zm0 0" fill="#f0ecf2"/><path d="m167.3125 128-158.777344 158.78125zm0 0" fill="#efecf2"/><path d="m167.3125 128-158.777344 158.78125zm0 0" fill="#eeebf2"/><path d="m167.3125 128-158.777344 158.78125zm0 0" fill="#edebf2"/><path d="m167.3125 128-158.777344 158.78125zm0 0" fill="#eceaf2"/><path d="m167.3125 128-158.777344 158.78125zm0 0" fill="#ebeaf2"/><path d="m167.3125 128-158.777344 158.78125zm0 0" fill="#eae9f2"/><path d="m167.3125 128-158.777344 158.78125zm0 0" fill="#e8e9f2"/><path d="m167.3125 128-158.777344 158.78125zm0 0" fill="#e7e8f2"/><path d="m167.3125 128-158.777344 158.78125zm0 0" fill="#e6e8f2"/><path d="m167.3125 128-158.777344 158.78125zm0 0" fill="#e5e7f2"/><path d="m167.3125 128-158.777344 158.78125zm0 0" fill="#e4e7f2"/><path d="m167.3125 128-158.777344 158.78125zm0 0" fill="#e3e6f2"/><path d="m167.3125 128-158.777344 158.78125zm0 0" fill="#e2e6f2"/><path d="m167.3125 128-158.777344 158.78125zm0 0" fill="#e1e6f2"/><path d="m167.3125 128-158.777344 158.78125zm0 0" fill="#e0e5f2"/><path d="m167.3125 128-158.777344 158.78125zm0 0" fill="#dfe5f2"/><path d="m167.3125 128-158.777344 158.78125zm0 0" fill="#dee4f2"/><path d="m167.3125 128-158.777344 158.78125zm0 0" fill="#dde4f2"/><path d="m167.3125 128-158.777344 158.78125zm0 0" fill="#dce3f2"/><path d="m167.3125 128-158.777344 158.78125zm0 0" fill="#dbe3f2"/><path d="m167.3125 128-158.777344 158.78125zm0 0" fill="#dae2f2"/><path d="m167.3125 128-158.777344 158.78125zm0 0" fill="#d9e2f2"/><path d="m167.3125 128-158.777344 158.78125zm0 0" fill="#d8e1f2"/><path d="m167.3125 128-158.777344 158.78125zm0 0" fill="#d7e1f2"/><path d="m167.3125 128-158.777344 158.78125zm0 0" fill="#d6e0f2"/><path d="m167.3125 128-158.777344 158.78125zm0 0" fill="#d5e0f2"/><path d="m167.3125 128-158.777344 158.78125zm0 0" fill="#d4dff2"/><path d="m167.3125 128-158.777344 158.78125zm0 0" fill="#d3dff2"/><path d="m247.464844 132.574219-238.929688 238.933593v-84.726562l158.777344-158.78125h80.152344zm0 0" fill="#d3dff2"/><path d="m247.464844 132.632812-238.929688 238.933594v-.058594l238.929688-238.933593zm0 0" fill="#d3dff2"/><path d="m247.464844 132.691406-238.929688 238.933594v-.058594l238.929688-238.933594zm0 0" fill="#d8e1f2"/><path d="m247.464844 132.753906-238.929688 238.933594v-.0625l238.929688-238.933594zm0 0" fill="#dce3f2"/><path d="m247.464844 132.8125-238.929688 238.933594v-.058594l238.929688-238.933594zm0 0" fill="#e0e5f2"/><path d="m247.464844 132.871094-238.929688 238.933594v-.058594l238.929688-238.933594zm0 0" fill="#e4e7f2"/><path d="m247.464844 132.933594-238.929688 238.933594v-.0625l238.929688-238.933594zm0 0" fill="#e7e8f2"/><path d="m247.464844 132.992188-238.929688 238.933593v-.058593l238.929688-238.933594zm0 0" fill="#eaeaf2"/><path d="m247.464844 133.050781-238.929688 238.933594v-.058594l238.929688-238.933593zm0 0" fill="#edebf2"/><path d="m247.464844 133.113281-238.929688 238.929688v-.058594l238.929688-238.933594zm0 0" fill="#efecf2"/><path d="m247.464844 133.171875-238.929688 238.933594v-.0625l238.929688-238.929688zm0 0" fill="#f1edf2"/><path d="m247.464844 133.230469-238.929688 238.933593v-.058593l238.929688-238.933594zm0 0" fill="#f3eef2"/><path d="m247.464844 133.289062-238.929688 238.933594v-.058594l238.929688-238.933593zm0 0" fill="#f5eef2"/><path d="m247.464844 133.34375-238.929688 238.929688v-.050782l238.929688-238.933594zm0 0" fill="#f6eff2"/><path d="m247.464844 133.402344-238.929688 238.933594v-.0625l238.929688-238.929688zm0 0" fill="#f8f0f2"/><path d="m247.464844 133.460938-238.929688 238.933593v-.058593l238.929688-238.933594zm0 0" fill="#f9f0f2"/><path d="m247.464844 133.519531-238.929688 238.933594v-.058594l238.929688-238.933593zm0 0" fill="#faf1f2"/><path d="m247.464844 133.582031-238.929688 238.933594v-.0625l238.929688-238.933594zm0 0" fill="#fbf1f2"/><path d="m247.464844 133.640625-238.929688 238.933594v-.058594l238.929688-238.933594zm0 0" fill="#fbf1f2"/><path d="m247.464844 133.699219-238.929688 238.933593v-.058593l238.929688-238.933594zm0 0" fill="#fcf2f2"/><path d="m247.464844 133.761719-238.929688 238.929687v-.058594l238.929688-238.933593zm0 0" fill="#fdf2f2"/><path d="m247.464844 133.820312-238.929688 238.933594v-.0625l238.929688-238.929687zm0 0" fill="#fdf2f2"/><path d="m247.464844 133.878906-238.929688 238.933594v-.058594l238.929688-238.933594zm0 0" fill="#fdf2f2"/><path d="m247.464844 133.9375-238.929688 238.933594v-.058594l238.929688-238.933594zm0 0" fill="#fef2f2"/><path d="m247.464844 134-238.929688 238.933594v-.0625l238.929688-238.933594zm0 0" fill="#fef3f2"/><path d="m247.464844 134.058594-238.929688 238.933594v-.058594l238.929688-238.933594zm0 0" fill="#fef3f2"/><path d="m247.464844 134.117188-238.929688 238.933593v-.058593l238.929688-238.933594zm0 0" fill="#fef3f2"/><path d="m247.464844 134.179688-238.929688 238.933593v-.0625l238.929688-238.933593zm0 0" fill="#fff3f2"/><path d="m247.464844 134.238281-238.929688 238.933594v-.058594l238.929688-238.933593zm0 0" fill="#fff3f2"/><path d="m247.464844 134.296875-238.929688 238.933594v-.058594l238.929688-238.933594zm0 0" fill="#fff3f2"/><path d="m247.464844 134.355469-238.929688 238.933593v-.058593l238.929688-238.933594zm0 0" fill="#fff3f2"/><path d="m247.464844 134.417969-238.929688 238.933593v-.0625l238.929688-238.933593zm0 0" fill="#fff3f2"/><path d="m247.464844 134.476562-238.929688 238.933594v-.058594l238.929688-238.933593zm0 0" fill="#fff3f2"/><path d="m247.464844 134.535156-238.929688 238.933594v-.058594l238.929688-238.933594zm0 0" fill="#fff3f2"/><path d="m247.464844 134.597656-238.929688 238.933594v-.0625l238.929688-238.933594zm0 0" fill="#fff3f2"/><path d="m247.464844 134.65625-238.929688 238.933594v-.058594l238.929688-238.933594zm0 0" fill="#fff3f2"/><path d="m247.464844 134.714844-238.929688 238.933594v-.058594l238.929688-238.933594zm0 0" fill="#fff3f2"/><path d="m247.464844 134.777344-238.929688 238.929687v-.058593l238.929688-238.933594zm0 0" fill="#fff3f2"/><path d="m247.464844 134.835938-238.929688 238.933593v-.0625l238.929688-238.929687zm0 0" fill="#fff3f2"/><path d="m247.464844 134.894531-238.929688 238.933594v-.058594l238.929688-238.933593zm0 0" fill="#fff3f2"/><path d="m247.464844 134.953125-238.929688 238.933594v-.058594l238.929688-238.933594zm0 0" fill="#fff3f2"/><path d="m247.464844 135.015625-238.929688 238.933594v-.0625l238.929688-238.933594zm0 0" fill="#fff3f2"/><path d="m247.464844 135.074219-238.929688 238.933593v-.058593l238.929688-238.933594zm0 0" fill="#fff3f2"/><path d="m247.464844 135.132812-238.929688 238.933594v-.058594l238.929688-238.933593zm0 0" fill="#fff3f2"/><path d="m247.464844 135.195312-238.929688 238.929688v-.058594l238.929688-238.933594zm0 0" fill="#fff3f2"/><path d="m247.464844 174.933594-238.929688 238.933594v-39.742188l238.929688-238.929688zm0 0" fill="#fff3f2"/><path d="m247.464844 174.941406-238.929688 238.933594v-.007812l238.929688-238.933594zm0 0" fill="#fff3f2"/><path d="m247.464844 174.957031-238.929688 238.933594v-.015625l238.929688-238.933594zm0 0" fill="#faf1f2"/><path d="m247.464844 174.96875-238.929688 238.933594v-.011719l238.929688-238.933594zm0 0" fill="#f6eff2"/><path d="m247.464844 174.984375-238.929688 238.933594v-.015625l238.929688-238.933594zm0 0" fill="#f2edf2"/><path d="m247.464844 174.992188-238.929688 238.933593v-.007812l238.929688-238.933594zm0 0" fill="#eeebf2"/><path d="m247.464844 175-238.929688 238.933594v-.007813l238.929688-238.933593zm0 0" fill="#ebeaf2"/><path d="m247.464844 175.019531-238.929688 238.933594v-.019531l238.929688-238.933594zm0 0" fill="#e8e8f2"/><path d="m247.464844 175.027344-238.929688 238.933594v-.007813l238.929688-238.933594zm0 0" fill="#e5e7f2"/><path d="m247.464844 175.042969-238.929688 238.933593v-.015624l238.929688-238.933594zm0 0" fill="#e3e6f2"/><path d="m247.464844 175.054688-238.929688 238.929687v-.007813l238.929688-238.933593zm0 0" fill="#e1e5f2"/><path d="m247.464844 175.070312-238.929688 238.933594v-.019531l238.929688-238.929687zm0 0" fill="#dfe4f2"/><path d="m247.464844 175.078125-238.929688 238.933594v-.007813l238.929688-238.933594zm0 0" fill="#dde4f2"/><path d="m247.464844 175.085938-238.929688 238.933593v-.007812l238.929688-238.933594zm0 0" fill="#dce3f2"/><path d="m247.464844 175.105469-238.929688 238.933593v-.019531l238.929688-238.933593zm0 0" fill="#dae2f2"/><path d="m247.464844 175.113281-238.929688 238.933594v-.007813l238.929688-238.933593zm0 0" fill="#d9e2f2"/><path d="m247.464844 175.128906-238.929688 238.933594v-.015625l238.929688-238.933594zm0 0" fill="#d8e1f2"/><path d="m247.464844 175.136719-238.929688 238.933593v-.007812l238.929688-238.933594zm0 0" fill="#d7e1f2"/><path d="m247.464844 175.148438-238.929688 238.929687v-.007813l238.929688-238.933593zm0 0" fill="#d7e1f2"/><path d="m247.464844 175.164062-238.929688 238.933594v-.019531l238.929688-238.929687zm0 0" fill="#d6e0f2"/><path d="m247.464844 175.171875-238.929688 238.933594v-.007813l238.929688-238.933594zm0 0" fill="#d5e0f2"/><path d="m247.464844 175.1875-238.929688 238.933594v-.015625l238.929688-238.933594zm0 0" fill="#d5e0f2"/><path d="m247.464844 175.199219-238.929688 238.933593v-.011718l238.929688-238.933594zm0 0" fill="#d5e0f2"/><path d="m247.464844 175.207031-238.929688 238.933594v-.007813l238.929688-238.933593zm0 0" fill="#d4e0f2"/><path d="m247.464844 175.222656-238.929688 238.933594v-.015625l238.929688-238.933594zm0 0" fill="#d4dff2"/><path d="m247.464844 175.230469-238.929688 238.933593v-.007812l238.929688-238.933594zm0 0" fill="#d4dff2"/><path d="m247.464844 175.25-238.929688 238.933594v-.019532l238.929688-238.933593zm0 0" fill="#d4dff2"/><g fill="#d3dff2"><path d="m247.464844 175.257812-238.929688 238.933594v-.007812l238.929688-238.933594zm0 0"/><path d="m247.464844 175.265625-238.929688 238.933594v-.007813l238.929688-238.933594zm0 0"/><path d="m247.464844 175.28125-238.929688 238.933594v-.015625l238.929688-238.933594zm0 0"/><path d="m247.464844 175.292969-238.929688 238.933593v-.011718l238.929688-238.933594zm0 0"/><path d="m247.464844 175.308594-238.929688 238.933594v-.015626l238.929688-238.933593zm0 0"/><path d="m247.464844 175.316406-238.929688 238.933594v-.007812l238.929688-238.933594zm0 0"/><path d="m247.464844 175.335938-238.929688 238.933593v-.019531l238.929688-238.933594zm0 0"/><path d="m247.464844 175.34375-238.929688 238.933594v-.007813l238.929688-238.933593zm0 0"/><path d="m247.464844 175.351562-238.929688 238.933594v-.007812l238.929688-238.933594zm0 0"/><path d="m247.464844 175.367188-238.929688 238.933593v-.015625l238.929688-238.933594zm0 0"/><path d="m247.464844 175.378906-238.929688 238.929688v-.007813l238.929688-238.933593zm0 0"/><path d="m247.464844 175.394531-238.929688 238.933594v-.019531l238.929688-238.929688zm0 0"/><path d="m247.464844 175.402344-238.929688 238.933594v-.007813l238.929688-238.933594zm0 0"/><path d="m247.464844 175.410156-238.929688 238.933594v-.007812l238.929688-238.933594zm0 0"/><path d="m247.464844 175.429688-238.929688 238.933593v-.019531l238.929688-238.933594zm0 0"/><path d="m247.464844 175.4375-238.929688 238.933594v-.007813l238.929688-238.933593zm0 0"/><path d="m247.464844 175.453125-238.929688 238.933594v-.015625l238.929688-238.933594zm0 0"/><path d="m247.464844 175.460938-238.929688 238.933593v-.007812l238.929688-238.933594zm0 0"/><path d="m247.464844 302.019531-158.777344 158.78125h-80.152344v-46.40625l238.929688-238.933593zm0 0"/><path d="m247.464844 302.027344-158.769532 158.773437h-.007812l158.777344-158.78125zm0 0"/></g><path d="m247.464844 302.046875-158.753906 158.753906h-.015626l158.769532-158.773437zm0 0" fill="#d4dff2"/><path d="m247.464844 302.054688-158.742188 158.746093h-.011718l158.753906-158.753906zm0 0" fill="#d5e0f2"/><path d="m247.464844 302.0625-158.734375 158.738281h-.007813l158.742188-158.746093zm0 0" fill="#d6e0f2"/><path d="m247.464844 302.078125-158.71875 158.722656h-.015625l158.734375-158.738281zm0 0" fill="#d7e1f2"/><path d="m247.464844 302.089844-158.710938 158.710937h-.007812l158.71875-158.722656zm0 0" fill="#d8e1f2"/><path d="m247.464844 302.105469-158.691406 158.695312h-.019532l158.710938-158.710937zm0 0" fill="#d9e2f2"/><path d="m247.464844 302.113281-158.683594 158.6875h-.007812l158.691406-158.695312zm0 0" fill="#dae2f2"/><path d="m247.464844 302.121094-158.675782 158.679687h-.007812l158.683594-158.6875zm0 0" fill="#dbe3f2"/><path d="m247.464844 302.140625-158.660156 158.660156h-.015626l158.675782-158.679687zm0 0" fill="#dce3f2"/><path d="m247.464844 302.148438-158.648438 158.652343h-.011718l158.660156-158.660156zm0 0" fill="#dde4f2"/><path d="m247.464844 302.164062-158.632813 158.636719h-.015625l158.648438-158.652343zm0 0" fill="#dee4f2"/><path d="m247.464844 302.175781-158.625 158.625h-.007813l158.632813-158.636719zm0 0" fill="#dfe5f2"/><path d="m247.464844 302.191406-158.605469 158.609375h-.019531l158.625-158.625zm0 0" fill="#e0e5f2"/><path d="m247.464844 302.199219-158.597656 158.601562h-.007813l158.605469-158.609375zm0 0" fill="#e1e6f2"/><path d="m247.464844 302.207031-158.589844 158.59375h-.007812l158.597656-158.601562zm0 0" fill="#e2e6f2"/><path d="m247.464844 302.226562-158.574219 158.574219h-.015625l158.589844-158.59375zm0 0" fill="#e3e6f2"/><path d="m247.464844 302.234375-158.566406 158.566406h-.007813l158.574219-158.574219zm0 0" fill="#e4e7f2"/><path d="m247.464844 302.25-158.546875 158.550781h-.019531l158.566406-158.566406zm0 0" fill="#e5e7f2"/><path d="m247.464844 302.257812-158.539063 158.542969h-.007812l158.546875-158.550781zm0 0" fill="#e6e8f2"/><path d="m247.464844 302.269531-158.53125 158.53125h-.007813l158.539063-158.542969zm0 0" fill="#e7e8f2"/><path d="m247.464844 302.285156-158.511719 158.515625h-.019531l158.53125-158.53125zm0 0" fill="#e8e9f2"/><path d="m247.464844 302.292969-158.503906 158.507812h-.007813l158.511719-158.515625zm0 0" fill="#eae9f2"/><path d="m247.464844 302.308594-158.488282 158.492187h-.015624l158.503906-158.507812zm0 0" fill="#ebeaf2"/><path d="m247.464844 302.320312-158.480469 158.480469h-.007813l158.488282-158.492187zm0 0" fill="#eceaf2"/><path d="m247.464844 302.328125-158.472656 158.472656h-.007813l158.480469-158.480469zm0 0" fill="#edebf2"/><path d="m247.464844 302.34375-158.453125 158.457031h-.019531l158.472656-158.472656zm0 0" fill="#eeebf2"/><path d="m247.464844 302.351562-158.445313 158.449219h-.007812l158.453125-158.457031zm0 0" fill="#efecf2"/><path d="m247.464844 302.371094-158.429688 158.429687h-.015625l158.445313-158.449219zm0 0" fill="#f0ecf2"/><path d="m247.464844 302.378906-158.417969 158.421875h-.011719l158.429688-158.429687zm0 0" fill="#f1ecf2"/><path d="m247.464844 302.386719-158.410156 158.414062h-.007813l158.417969-158.421875zm0 0" fill="#f2edf2"/><path d="m247.464844 302.402344-158.394532 158.398437h-.015624l158.410156-158.414062zm0 0" fill="#f3edf2"/><path d="m247.464844 302.414062-158.386719 158.386719h-.007813l158.394532-158.398437zm0 0" fill="#f4eef2"/><path d="m247.464844 302.429688-158.367188 158.371093h-.019531l158.386719-158.386719zm0 0" fill="#f5eef2"/><path d="m247.464844 302.4375-158.359375 158.363281h-.007813l158.367188-158.371093zm0 0" fill="#f6eff2"/><path d="m247.464844 302.457031-158.34375 158.34375h-.015625l158.359375-158.363281zm0 0" fill="#f7eff2"/><path d="m247.464844 302.464844-158.335938 158.335937h-.007812l158.34375-158.34375zm0 0" fill="#f8f0f2"/><path d="m247.464844 302.472656-158.324219 158.328125h-.011719l158.335938-158.335937zm0 0" fill="#f9f0f2"/><path d="m247.464844 302.488281-158.308594 158.3125h-.015625l158.324219-158.328125zm0 0" fill="#faf1f2"/><path d="m247.464844 302.5-158.300782 158.300781h-.007812l158.308594-158.3125zm0 0" fill="#fbf1f2"/><path d="m247.464844 302.515625-158.28125 158.285156h-.019532l158.300782-158.300781zm0 0" fill="#fcf2f2"/><path d="m247.464844 302.523438-158.273438 158.277343h-.007812l158.28125-158.285156zm0 0" fill="#fdf2f2"/><path d="m247.464844 302.53125-158.265625 158.269531h-.007813l158.273438-158.277343zm0 0" fill="#fef3f2"/><path d="m247.464844 302.550781-158.25 158.25h-.015625l158.265625-158.269531zm0 0" fill="#fff3f2"/><path d="m247.464844 360.269531-100.53125 100.53125h-57.71875l158.25-158.25zm0 0" fill="#fff3f2"/><path d="m247.464844 360.277344-100.519532 100.523437h-.011718l100.53125-100.53125zm0 0" fill="#fff3f2"/><path d="m247.464844 360.285156-100.511719 100.515625h-.007813l100.519532-100.523437zm0 0" fill="#fef3f2"/><path d="m247.464844 360.304688-100.496094 100.496093h-.015625l100.511719-100.515625zm0 0" fill="#fdf2f2"/><path d="m247.464844 360.3125-100.488282 100.488281h-.007812l100.496094-100.496093zm0 0" fill="#fcf2f2"/><path d="m247.464844 360.328125-100.46875 100.472656h-.019532l100.488282-100.488281zm0 0" fill="#fbf1f2"/><path d="m247.464844 360.335938-100.460938 100.464843h-.007812l100.46875-100.472656zm0 0" fill="#faf1f2"/><path d="m247.464844 360.34375-100.453125 100.457031h-.007813l100.460938-100.464843zm0 0" fill="#f9f0f2"/><path d="m247.464844 360.363281-100.433594 100.4375h-.019531l100.453125-100.457031zm0 0" fill="#f8f0f2"/><path d="m247.464844 360.371094-100.425782 100.429687h-.007812l100.433594-100.4375zm0 0" fill="#f7eff2"/><path d="m247.464844 360.386719-100.410156 100.414062h-.015626l100.425782-100.429687zm0 0" fill="#f6eff2"/><path d="m247.464844 360.398438-100.402344 100.402343h-.007812l100.410156-100.414062zm0 0" fill="#f5eef2"/><path d="m247.464844 360.414062-100.382813 100.386719h-.019531l100.402344-100.402343zm0 0" fill="#f4eef2"/><path d="m247.464844 360.421875-100.375 100.378906h-.007813l100.382813-100.386719zm0 0" fill="#f3edf2"/><path d="m247.464844 360.429688-100.367188 100.371093h-.007812l100.375-100.378906zm0 0" fill="#f2edf2"/><path d="m247.464844 360.449219-100.351563 100.351562h-.015625l100.367188-100.371093zm0 0" fill="#f1ecf2"/><path d="m247.464844 360.457031-100.339844 100.34375h-.011719l100.351563-100.351562zm0 0" fill="#f0ecf2"/><path d="m247.464844 360.472656-100.324219 100.328125h-.015625l100.339844-100.34375zm0 0" fill="#efecf2"/><path d="m247.464844 360.480469-100.316406 100.320312h-.007813l100.324219-100.328125zm0 0" fill="#eeebf2"/><path d="m247.464844 360.492188-100.308594 100.308593h-.007812l100.316406-100.320312zm0 0" fill="#edebf2"/><path d="m247.464844 360.507812-100.289063 100.292969h-.019531l100.308594-100.308593zm0 0" fill="#eceaf2"/><path d="m247.464844 360.515625-100.28125 100.285156h-.007813l100.289063-100.292969zm0 0" fill="#ebeaf2"/><path d="m247.464844 360.535156-100.265625 100.265625h-.015625l100.28125-100.285156zm0 0" fill="#eae9f2"/><path d="m247.464844 360.542969-100.257813 100.257812h-.007812l100.265625-100.265625zm0 0" fill="#e8e9f2"/><path d="m247.464844 360.550781-100.246094 100.25h-.011719l100.257813-100.257812zm0 0" fill="#e7e8f2"/><path d="m247.464844 360.566406-100.230469 100.234375h-.015625l100.246094-100.25zm0 0" fill="#e6e8f2"/><path d="m247.464844 360.574219-100.222656 100.226562h-.007813l100.230469-100.234375zm0 0" fill="#e5e7f2"/><path d="m247.464844 360.59375-100.207032 100.207031h-.015624l100.222656-100.226562zm0 0" fill="#e4e7f2"/><path d="m247.464844 360.601562-100.195313 100.199219h-.011719l100.207032-100.207031zm0 0" fill="#e3e6f2"/><path d="m247.464844 360.617188-100.179688 100.183593h-.015625l100.195313-100.199219zm0 0" fill="#e2e6f2"/><path d="m247.464844 360.628906-100.171875 100.171875h-.007813l100.179688-100.183593zm0 0" fill="#e1e6f2"/><path d="m247.464844 360.636719-100.164063 100.164062h-.007812l100.171875-100.171875zm0 0" fill="#e0e5f2"/><path d="m247.464844 360.652344-100.144532 100.148437h-.019531l100.164063-100.164062zm0 0" fill="#dfe5f2"/><path d="m247.464844 360.660156-100.136719 100.140625h-.007813l100.144532-100.148437zm0 0" fill="#dee4f2"/><path d="m247.464844 360.679688-100.121094 100.121093h-.015625l100.136719-100.140625zm0 0" fill="#dde4f2"/><path d="m247.464844 360.6875-100.109375 100.113281h-.011719l100.121094-100.121093zm0 0" fill="#dce3f2"/><path d="m247.464844 360.695312-100.101563 100.105469h-.007812l100.109375-100.113281zm0 0" fill="#dbe3f2"/><path d="m247.464844 360.710938-100.085938 100.089843h-.015625l100.101563-100.105469zm0 0" fill="#dae2f2"/><path d="m247.464844 360.722656-100.078125 100.078125h-.007813l100.085938-100.089843zm0 0" fill="#d9e2f2"/><path d="m247.464844 360.738281-100.058594 100.0625h-.019531l100.078125-100.078125zm0 0" fill="#d8e1f2"/><path d="m247.464844 360.746094-100.050782 100.054687h-.007812l100.058594-100.0625zm0 0" fill="#d7e1f2"/><path d="m247.464844 360.753906-100.042969 100.046875h-.007813l100.050782-100.054687zm0 0" fill="#d6e0f2"/><path d="m247.464844 360.773438-100.027344 100.027343h-.015625l100.042969-100.046875zm0 0" fill="#d5e0f2"/><path d="m247.464844 360.78125-100.015625 100.019531h-.011719l100.027344-100.027343zm0 0" fill="#d4dff2"/><path d="m247.464844 360.796875-100 100.003906h-.015625l100.015625-100.019531zm0 0" fill="#d3dff2"/><path d="m147.464844 460.800781 100-100.003906v100.003906zm0 0" fill="#d3dff2"/><path d="m24.148438 455.339844c2.316406 1.449218 4.773437 2.648437 7.339843 3.582031-2.601562-.84375-5.070312-2.050781-7.339843-3.582031zm0 0" fill="#90bae1"/><path d="m128 221.867188c9.425781 0 17.066406 7.640624 17.066406 17.066406v42.667968c0 9.425782-7.640625 17.066407-17.066406 17.066407s-17.066406-7.640625-17.066406-17.066407v-42.667968c0-9.425782 7.640625-17.066406 17.066406-17.066406zm0 0" fill="#e8edfc"/><path d="m493.996094 19.03125-100.269532 111.359375-19.199218 21.332031c-9.582032 10.683594-24.828125 14.230469-38.144532 8.875-4.511718-1.863281-8.582031-4.652344-11.945312-8.191406l-19.625-20.652344-102.742188-108.117187c6.335938-9.4375 16.960938-15.101563 28.328126-15.101563h238.933593c9.308594-.011718 18.21875 3.78125 24.664063 10.496094zm0 0" fill="#cad9fc"/><path d="m468.394531 19.03125-100.265625 111.359375-19.199218 21.332031c-3.476563 3.847656-7.761719 6.875-12.546876 8.875-4.511718-1.863281-8.582031-4.652344-11.945312-8.191406l-19.625-20.652344-102.742188-108.117187c6.335938-9.4375 16.960938-15.101563 28.328126-15.101563h213.335937c9.304687-.011718 18.214844 3.78125 24.660156 10.496094zm0 0" fill="#e8edfc"/><path d="m503.464844 42.667969v170.664062c.011718 8.890625-3.449219 17.429688-9.640625 23.808594l-16.554688-17.664063-83.542969-89.085937 83.714844-92.929687 16.554688-18.429688c6.058594 6.378906 9.445312 14.835938 9.46875 23.636719zm0 0" fill="#cad9fc"/><path d="m477.867188 42.667969v170.664062c.019531 2.066407-.179688 4.125-.597657 6.144531l-83.542969-89.085937 83.714844-92.929687c.269532 1.722656.414063 3.460937.425782 5.207031zm0 0" fill="#e8edfc"/><path d="m304.8125 131.753906-98.902344 105.386719c-6.191406-6.378906-9.652344-14.917969-9.644531-23.808594v-170.664062c0-6.78125 2.019531-13.40625 5.804687-19.03125zm0 0" fill="#e8edfc"/><path d="m493.824219 237.140625c-6.433594 6.609375-15.269531 10.335937-24.492188 10.324219h-238.933593c-9.222657.011718-18.054688-3.714844-24.488282-10.324219l98.902344-105.386719 19.625 20.652344c6.542969 6.90625 15.679688 10.765625 25.195312 10.632812 9.515626-.128906 18.542969-4.230468 24.894532-11.316406l19.199218-21.332031zm0 0" fill="#e8edfc"/><path d="m416.9375 307.199219h-32.9375v162.132812c-.027344 9.414063-7.652344 17.039063-17.066406 17.066407h-34.132813c-9.414062-.027344-17.039062-7.652344-17.066406-17.066407v-162.132812h-32.941406c-3.3125.007812-6.328125-1.90625-7.738281-4.90625-1.40625-3-.949219-6.542969 1.167968-9.085938l38.058594-45.742187 22.785156-27.304688 6.230469-7.507812c1.621094-1.957032 4.027344-3.089844 6.570313-3.089844 2.539062 0 4.949218 1.132812 6.570312 3.089844l29.011719 34.8125 38.058593 45.742187c2.121094 2.542969 2.578126 6.085938 1.167969 9.085938-1.40625 3-4.425781 4.914062-7.738281 4.90625zm0 0" fill="#cad9fc"/><path d="m391.339844 307.199219h-32.941406v162.132812c-.027344 9.414063-7.652344 17.039063-17.066407 17.066407h-8.53125c-9.414062-.027344-17.039062-7.652344-17.066406-17.066407v-162.132812h-32.941406c-3.3125.007812-6.328125-1.90625-7.738281-4.90625-1.40625-3-.949219-6.542969 1.167968-9.085938l38.058594-45.742187 22.785156-27.304688 22.785156 27.304688 38.058594 45.742187c2.121094 2.542969 2.574219 6.085938 1.167969 9.085938-1.410156 3-4.425781 4.914062-7.738281 4.90625zm0 0" fill="#e8edfc"/><path d="m213.332031 59.734375h8.535157v-17.066406c0-18.851563 15.28125-34.132813 34.132812-34.132813h-25.601562c-18.851563 0-34.132813 15.28125-34.132813 34.132813v17.066406zm0 0" fill="#fff"/><path d="m42.667969 503.464844h25.597656c-18.851563 0-34.132813-15.28125-34.132813-34.132813v-375.464843c0-18.851563 15.28125-34.132813 34.132813-34.132813h-25.597656c-18.851563 0-34.132813 15.28125-34.132813 34.132813v375.464843c0 18.851563 15.28125 34.132813 34.132813 34.132813zm0 0" fill="#fff"/><path d="m17.066406 162.132812v264.535157h-17.066406v-264.535157zm0 0" fill="#fff"/><path d="m8.535156 204.800781c4.710938 0 8.53125-3.820312 8.53125-8.535156v-34.132813h-17.066406v34.132813c0 4.714844 3.820312 8.535156 8.535156 8.535156zm0 0" fill="#428dff"/><path d="m0 426.667969h17.066406v-162.132813c0-4.714844-3.820312-8.535156-8.53125-8.535156-4.714844 0-8.535156 3.820312-8.535156 8.535156zm0 0" fill="#428dff"/><path d="m17.066406 230.398438c-.03125-2.257813-.917968-4.421876-2.472656-6.058594l-1.28125-1.023438c-.476562-.324218-.992188-.582031-1.535156-.765625-.484375-.246093-1.003906-.421875-1.539063-.511719-.5625-.097656-1.132812-.152343-1.703125-.171874-2.261718.03125-4.425781.917968-6.058594 2.472656-.773437.816406-1.382812 1.773437-1.792968 2.816406-1.289063 3.183594-.5859378 6.824219 1.792968 9.300781.8125.773438 1.769532 1.382813 2.8125 1.792969 1.027344.4375 2.128907.667969 3.246094.683594 2.257813-.035156 4.421875-.917969 6.058594-2.476563 1.554688-1.632812 2.441406-3.796875 2.472656-6.058593zm0 0" fill="#428dff"/><path d="m17.066406 162.132812v264.535157h-17.066406v-264.535157zm0 0" fill="#fff"/><path d="m8.535156 204.800781c4.710938 0 8.53125-3.820312 8.53125-8.535156v-34.132813h-17.066406v34.132813c0 4.714844 3.820312 8.535156 8.535156 8.535156zm0 0" fill="#428dff"/><path d="m0 426.667969h17.066406v-162.132813c0-4.714844-3.820312-8.535156-8.53125-8.535156-4.714844 0-8.535156 3.820312-8.535156 8.535156zm0 0" fill="#428dff"/><path d="m17.066406 230.398438c-.03125-2.257813-.917968-4.421876-2.472656-6.058594l-1.28125-1.023438c-.476562-.324218-.992188-.582031-1.535156-.765625-.484375-.246093-1.003906-.421875-1.539063-.511719-.5625-.097656-1.132812-.152343-1.703125-.171874-2.261718.03125-4.425781.917968-6.058594 2.472656-.773437.816406-1.382812 1.773437-1.792968 2.816406-1.289063 3.183594-.5859378 6.824219 1.792968 9.300781.8125.773438 1.769532 1.382813 2.8125 1.792969 1.027344.4375 2.128907.667969 3.246094.683594 2.257813-.035156 4.421875-.917969 6.058594-2.476563 1.554688-1.632812 2.441406-3.796875 2.472656-6.058593zm0 0" fill="#428dff"/><path d="m8.535156 170.667969c-4.714844 0-8.535156-3.820313-8.535156-8.535157v-68.265624c.0273438-23.554688 19.113281-42.640626 42.667969-42.667969h153.597656c4.714844 0 8.535156 3.820312 8.535156 8.535156 0 4.710937-3.820312 8.53125-8.535156 8.53125h-153.597656c-14.140625 0-25.601563 11.460937-25.601563 25.601563v68.265624c0 4.714844-3.820312 8.535157-8.53125 8.535157zm0 0" fill="#428dff"/><path d="m213.332031 512h-170.664062c-23.554688-.027344-42.6406252-19.113281-42.667969-42.667969v-42.664062c0-4.714844 3.820312-8.535157 8.535156-8.535157 4.710938 0 8.53125 3.820313 8.53125 8.535157v42.664062c0 14.140625 11.460938 25.601563 25.601563 25.601563h170.664062c14.140625 0 25.601563-11.460938 25.601563-25.601563v-221.867187c0-4.710938 3.820312-8.53125 8.53125-8.53125 4.714844 0 8.535156 3.820312 8.535156 8.53125v221.867187c-.027344 23.554688-19.113281 42.640625-42.667969 42.667969zm0 0" fill="#428dff"/><path d="m8.535156 170.667969c-4.714844 0-8.535156-3.820313-8.535156-8.535157.0273438-23.550781 19.113281-42.636718 42.667969-42.667968h153.597656c4.714844 0 8.535156 3.824218 8.535156 8.535156s-3.820312 8.535156-8.535156 8.535156h-153.597656c-14.140625 0-25.601563 11.460938-25.601563 25.597656 0 4.714844-3.820312 8.535157-8.53125 8.535157zm0 0" fill="#428dff"/><path d="m213.332031 469.332031h-170.664062c-23.554688-.027343-42.6406252-19.113281-42.667969-42.664062 0-4.714844 3.820312-8.535157 8.535156-8.535157 4.710938 0 8.53125 3.820313 8.53125 8.535157 0 14.136719 11.460938 25.597656 25.601563 25.597656h170.664062c14.140625 0 25.601563-11.460937 25.601563-25.597656v-179.203125c0-4.710938 3.820312-8.53125 8.53125-8.53125 4.714844 0 8.535156 3.820312 8.535156 8.53125v179.203125c-.027344 23.550781-19.113281 42.636719-42.667969 42.664062zm0 0" fill="#428dff"/><path d="m128 307.199219c-14.136719 0-25.601562-11.460938-25.601562-25.597657v-42.667968c0-14.140625 11.464843-25.601563 25.601562-25.601563s25.601562 11.460938 25.601562 25.601563v42.667968c0 14.136719-11.464843 25.597657-25.601562 25.597657zm0-76.800781c-4.710938 0-8.535156 3.820312-8.535156 8.535156v42.667968c0 4.710938 3.824218 8.53125 8.535156 8.53125s8.535156-3.820312 8.535156-8.53125v-42.667968c0-4.714844-3.824218-8.535156-8.535156-8.535156zm0 0" fill="#428dff"/><path d="m128 332.800781c-28.265625-.027343-51.171875-22.933593-51.199219-51.199219v-8.535156c0-4.710937 3.820313-8.53125 8.53125-8.53125 4.714844 0 8.535157 3.820313 8.535157 8.53125v8.535156c0 18.851563 15.28125 34.132813 34.132812 34.132813s34.132812-15.28125 34.132812-34.132813v-8.535156c0-4.710937 3.820313-8.53125 8.535157-8.53125 4.710937 0 8.53125 3.820313 8.53125 8.53125v8.535156c-.027344 28.265626-22.933594 51.171876-51.199219 51.199219zm0 0" fill="#428dff"/><path d="m145.066406 366.933594h-34.132812c-4.714844 0-8.535156-3.820313-8.535156-8.535156 0-4.710938 3.820312-8.53125 8.535156-8.53125h8.53125v-25.601563c0-4.710937 3.824218-8.53125 8.535156-8.53125s8.535156 3.820313 8.535156 8.53125v25.601563h8.53125c4.714844 0 8.535156 3.820312 8.535156 8.53125 0 4.714843-3.820312 8.535156-8.535156 8.535156zm0 0" fill="#428dff"/><path d="m93.867188 102.398438c-1.117188-.011719-2.21875-.242188-3.242188-.679688-1.046875-.414062-2-1.023438-2.816406-1.792969-.753906-.832031-1.359375-1.78125-1.792969-2.816406-.4375-1.027344-.667969-2.128906-.683594-3.242187.035157-2.257813.917969-4.421876 2.476563-6.058594.816406-.773438 1.769531-1.378906 2.816406-1.792969 3.175781-1.335937 6.847656-.628906 9.300781 1.792969 2.460938 2.441406 3.199219 6.128906 1.871094 9.332031-1.328125 3.199219-4.464844 5.28125-7.929687 5.257813zm0 0" fill="#428dff"/><path d="m162.132812 102.398438h-34.132812c-4.710938 0-8.535156-3.820313-8.535156-8.53125 0-4.714844 3.824218-8.535157 8.535156-8.535157h34.132812c4.714844 0 8.535157 3.820313 8.535157 8.535157 0 4.710937-3.820313 8.53125-8.535157 8.53125zm0 0" fill="#428dff"/><path d="m469.332031 256h-83.882812c-4.710938 0-8.53125-3.820312-8.53125-8.535156 0-4.710938 3.820312-8.53125 8.53125-8.53125h83.882812c14.140625 0 25.601563-11.460938 25.601563-25.601563v-170.664062c0-14.140625-11.460938-25.601563-25.601563-25.601563h-238.933593c-14.136719 0-25.597657 11.460938-25.597657 25.601563v170.664062c0 14.140625 11.460938 25.601563 25.597657 25.601563h83.882812c4.714844 0 8.535156 3.820312 8.535156 8.53125 0 4.714844-3.820312 8.535156-8.535156 8.535156h-83.882812c-23.550782-.027344-42.636719-19.113281-42.664063-42.667969v-170.664062c.027344-23.554688 19.113281-42.6406252 42.664063-42.667969h238.933593c23.554688.0273438 42.640625 19.113281 42.667969 42.667969v170.664062c-.027344 23.554688-19.113281 42.640625-42.667969 42.667969zm0 0" fill="#428dff"/><path d="m349.210938 171.570312c-11.683594-.027343-22.847657-4.820312-30.917969-13.269531l-122.410157-128.792969c-2.332031-2.15625-3.273437-5.429687-2.441406-8.496093.832032-3.066407 3.296875-5.417969 6.402344-6.101563 3.101562-.683594 6.328125.414063 8.371094 2.847656l122.367187 128.777344c4.824219 5.105469 11.542969 7.992188 18.566407 7.96875h.410156c7.113281-.082031 13.863281-3.164062 18.585937-8.480468l119.46875-132.695313c2.039063-2.273437 5.136719-3.285156 8.125-2.652344 2.984375.628907 5.410157 2.804688 6.359375 5.707031.949219 2.902344.277344 6.089844-1.761718 8.363282l-119.46875 132.695312c-7.921876 8.804688-19.152344 13.921875-31 14.121094zm0 0" fill="#428dff"/><path d="m493.824219 245.675781c-2.355469-.003906-4.609375-.976562-6.222657-2.699219l-100.101562-106.75c-2.273438-2.191406-3.152344-5.453124-2.285156-8.488281.867187-3.03125 3.335937-5.339843 6.421875-6 3.082031-.660156 6.28125.433594 8.3125 2.847657l100.105469 106.71875c2.324218 2.480468 2.957031 6.109374 1.601562 9.230468-1.351562 3.121094-4.429688 5.140625-7.832031 5.140625zm0 0" fill="#428dff"/><path d="m205.910156 245.675781c-3.40625.003907-6.488281-2.015625-7.84375-5.140625-1.355468-3.125-.71875-6.757812 1.613282-9.238281l98.902343-105.378906c2.085938-2.222657 5.199219-3.164063 8.171875-2.46875 2.96875.691406 5.339844 2.921875 6.222656 5.839843.882813 2.917969.140626 6.085938-1.945312 8.3125l-98.902344 105.386719c-1.613281 1.714844-3.863281 2.6875-6.21875 2.6875zm0 0" fill="#428dff"/><path d="m366.933594 494.933594h-34.132813c-14.140625 0-25.601562-11.460938-25.601562-25.601563v-153.597656h-24.40625c-6.636719.007813-12.675781-3.835937-15.480469-9.847656-2.808594-6.015625-1.875-13.109375 2.390625-18.195313l67.03125-80.503906c3.246094-3.894531 8.058594-6.140625 13.132813-6.132812 5.066406-.003907 9.871093 2.246093 13.113281 6.132812l67.074219 80.566406c4.230468 5.085938 5.140624 12.164063 2.332031 18.15625-2.808594 5.992188-8.828125 9.820313-15.449219 9.824219h-24.402344v153.597656c0 14.140625-11.464844 25.601563-25.601562 25.601563zm-17.066406-276.8125-67.082032 80.546875h32.949219c4.710937 0 8.53125 3.820312 8.53125 8.53125v162.132812c0 4.714844 3.820313 8.535157 8.535156 8.535157h34.132813c4.710937 0 8.53125-3.820313 8.53125-8.535157v-162.132812c0-4.710938 3.824218-8.53125 8.535156-8.53125h33.015625zm0 0" fill="#428dff"/></svg>