<svg xmlns="http://www.w3.org/2000/svg" width="92" height="100" viewBox="0 0 92 100"><title>Fill 1</title><path d="M46.72 69.76c2.71 6.25 7.13 9.95 12.05 11.05 6.07 1.36 11.2-2.16 15.56-4.03 2.4-1.03 4.58-1.56 6.55-.48 1.58.85-2.04-5.72-8.79-4.86-6.16.78-7.99 6.72-15.35 4.26-2.53-.84-5.73-2.65-10.02-5.94zm-1.2 24.66c-2.61.22-3.29 1.45-5.33 2.26-2.56 1.02-5.1.42-4.51.78 3.1 1.86 7.06 2.02 9.94 1.62 7.26-1.01 12.09-6.71 12.09-6.71-3.95 2.28-7.94 1.69-12.19 2.05zm-23.79-4.7c.94.03 2.44.26 3.71 1.35 2.05 1.77 4.88 4.09 9.33 3.94 4.44-.15 5.79-4.19 10.22-3.72 3.75.39 6.92 1.13 9.61.1-3.56-1.09-6.9-2.89-10.54-3.58-6.46-.94-8.5 3.31-12.58 3.04-2.84-.18-5.42-1.77-9.03-1.38-.89.09-1.67.23-.72.25zM0 22v54.25h48.64c-.42-.45-.84-.92-1.23-1.43H1.43V23.43h22.45c-.26-.44-.49-.92-.68-1.43zm59.18 9.08l-6.63 13.9h2.1l1.77-3.66h5.69l1.75 3.66h2.1l-6.64-13.9zm.14 4.34l1.97 4.18h-4.05l1.94-4.18zm-16.5-4.05v13.61h8.38v-1.72h-6.43v-4.82h6.43v-1.72h-6.43v-3.66h6.43v-1.69zm-12.48 6.79c0-2.84 2.26-5.33 4.98-5.41 1.77 0 3.08.7 3.72 1.4l1.31-1.28c-1.31-1.21-2.85-1.79-4.58-1.79-4.5 0-7.48 3.46-7.48 7.08 0 3.57 2.28 7.13 7.44 7.13 1.17 0 3.18-.14 5-2.38l-1.32-1.09c-.91.98-2.22 1.72-3.8 1.72-3.03 0-5.27-2.53-5.27-5.38zM19.5 45.27c4.05 0 7.34-3.17 7.34-7.11 0-3.91-3.29-7.08-7.34-7.08s-7.32 3.17-7.32 7.08c0 3.94 3.27 7.11 7.32 7.11zm0-12.48c2.9 0 5.28 2.41 5.28 5.37 0 2.98-2.38 5.42-5.28 5.42-2.9 0-5.26-2.44-5.26-5.42 0-2.96 2.36-5.37 5.26-5.37zm50.03 2.67h.04l9.41 9.81h.06V31.35h-1.95v9.54h-.06l-9.4-9.81h-.06v13.9h1.96zM6.25 81.32c3.37-2.42 6.89-1.65 14.1.17 7.21 1.82 9.05-.84 16.08-2.59 7.02-1.76 9.34-1.17 17.49 3.02 8.15 4.2 13.57 1.52 19.64-2.45 6.07-3.98 8.78-1.4 7.36-1.62-1.42-.22-4.81 1.37-8.87 5.97s-6.67 5.54-10.87 6.32c-4.19.78-10.2-2.5-13.99-3.99-3.79-1.49-8.68-1.11-13.3.23-4.62 1.34-7.19.86-10.9-.32-3.71-1.19-8.62-3.86-11.78-4.82-3.15-.95-4.96.08-4.96.08z" fill="#00519b"/><path d="M60.76 52.69c-.93-.51-1.87-.75-2.99-.75-2.19 0-2.82 1.36-2.82 2.21 0 1.67 1.75 2.5 3.69 3.45 1.85.92 4.11 2.04 4.11 5.29 0 2.91-2.6 4.61-5.54 4.61-1.43 0-3.55-.43-5.49-1.67l1.22-1.77c1.6 1.02 3.05 1.33 4.27 1.33 1.63 0 2.96-1.14 2.96-2.5 0-1.92-1.07-2.45-2.91-3.38-1.95-.92-4.88-2.35-4.88-5.36 0-2.38 2.4-4.35 5.39-4.35 1.48 0 3.01.44 4.22 1.12zm-10.93-2.52v2.11h-8.01v4.56h8.01v2.14h-8.01V65h8.01v2.14H39.39V50.17zM27.47 60.22v6.92h-2.43V50.17h5.34c1.05 0 5.66.04 5.66 5.05 0 3.13-1.97 4.85-4.56 4.98l6.26 6.94h-3.01l-6.24-6.92zm2.62-2.14c1.07 0 3.38-.22 3.38-2.96 0-2.53-1.95-2.82-3.5-2.82h-2.5v5.78zm-17.84-7.91h10.44v2.13h-8.01v4.54h7.99v2.14h-7.99v8.16h-2.43zm34.06-25.88c.49-1.95 3.19-8.91 11.23-10.06 8.04-1.14 11.66 3.63 11.66 3.63-7.16.88-14.78 5.19-21.79 7.2 3.86-5.23 11.19-7.22 13.79-8.19 0 0-7.92-.87-14.89 7.42zm12.3-13.09c8.45-6.65 14.97-6.81 20.76 2.62.83 1.34 1.55 1.49 1.55 1.49-3.42 2.82-15.86-3.1-21.7-3.04 5.78-4.03 13.16-.13 15.04.23 0 0-7.07-5.98-15.65-1.3zM39.94 28.61s-5.9-3.12-5.9-7.97 3.44-9.47 8-11.98c4.55-2.52 8.66-4.15 10.57-5.44 1.92-1.29 2.17-2.27 2.31-2.15.14.12 2.35 3.66.42 7.5-.58 1.14-1.32 2.31-2.13 3.44-3.29 4.55-8.33 7.2-10.51 11.54-1.26 2.49-1.38 4.5-1.38 4.47-.02-.11-1.83-3.04-1.23-5.86 1.24-5.76 5.03-8.46 9.25-12.83-4.22 2.38-10.4 6.68-11.77 11.48-1.35 4.77 2.25 6.15 2.37 7.8zM65 2.89c.24-.17-1 4.47-7.96 6.44-.79-6.29 6.06-5.02 7.96-6.44zM18.05 20.95c-6.68-1.36-8.26-5.6-8.03-5.46 1.91 1.19 8.18-.47 8.03 5.46zm15.49 7.89c-1.67-.43-7.7-2.1-8.76-8.22-1.06-6.12 2.96-9.07 2.96-9.07 2.53 4.31 6.12 11.32 6.7 16-4.99-3.6-6.47-9.3-6.47-9.3s-2.51 4.62 5.57 10.59zM25.92 4.17c-3.35 3.53-1.89 8.49-3.63 13.58-2.71-5.26-.49-9.71-.49-9.71s-3.54 3.13-1.14 10.48c-12.75-8.92 8-17.24 5.26-14.35zm5.96-1.06C36.21-.99 42.38.97 48.45 0c1.15 4.32-11.57 8.07-15.22 12.05-.99-8.5 9.69-8.38 10.63-9.42-6.8-.06-12.96 3.16-12.79 9.59-1.98-1.53-2.4-6.09.81-9.11zm57.98 72.04V23.76H55.39c1.22-.45 2.45-.94 3.68-1.43h32.22v54.25h-8.12c.03-.23-.22-.78-.74-1.43zM76.68 58.98v8.16h2.43V50.17h-2.43v6.67h-9.44v-6.67h-2.43v16.97h2.43v-8.16z" fill="#77a942"/></svg>