<svg height="512pt" viewBox="0 -12 512 256" width="512pt" xmlns="http://www.w3.org/2000/svg"><path d="m136.535156.5h238.929688c51.84375 0 93.867187 42.027344 93.867187 93.867188 0 51.839843-42.023437 93.867187-93.867187 93.867187h-238.929688c-51.84375 0-93.867187-42.027344-93.867187-93.867187 0-51.839844 42.023437-93.867188 93.867187-93.867188zm0 0" fill="#556080"/><path d="m136.535156 154.101562c-32.992187 0-59.734375-26.746093-59.734375-59.734374 0-32.992188 26.742188-59.734376 59.734375-59.734376h238.929688c32.992187 0 59.734375 26.742188 59.734375 59.734376 0 32.988281-26.742188 59.734374-59.734375 59.734374zm0 0" fill="#2c3e50"/><path d="m307.199219 154.101562c-32.988281 0-59.734375-26.746093-59.734375-59.734374 0-32.992188 26.746094-59.734376 59.734375-59.734376h68.265625c32.992187 0 59.734375 26.742188 59.734375 59.734376 0 32.988281-26.742188 59.734374-59.734375 59.734374zm0 0" fill="#ff5364"/><path d="m298.667969 119.964844c-14.140625 0-25.601563-11.460938-25.601563-25.597656 0-14.140626 11.460938-25.601563 25.601563-25.601563 14.136719 0 25.597656 11.460937 25.597656 25.601563-.015625 14.132812-11.46875 25.582031-25.597656 25.597656zm0-34.132813c-4.714844 0-8.535157 3.820313-8.535157 8.535157 0 4.710937 3.820313 8.53125 8.535157 8.53125 4.710937 0 8.53125-3.820313 8.53125-8.53125-.003907-4.710938-3.820313-8.53125-8.53125-8.535157zm0 0" fill="#fff"/><path d="m341.332031 119.964844c-4.710937 0-8.53125-3.820313-8.53125-8.53125v-34.132813c0-4.714843 3.820313-8.535156 8.53125-8.535156h17.066407c4.714843 0 8.535156 3.820313 8.535156 8.535156 0 4.710938-3.820313 8.53125-8.535156 8.53125h-8.53125v25.601563c0 4.710937-3.820313 8.53125-8.535157 8.53125zm0 0" fill="#fff"/><path d="m358.398438 111.433594h-17.066407c-4.710937 0-8.53125-3.820313-8.53125-8.535156 0-4.710938 3.820313-8.53125 8.53125-8.53125h17.066407c4.714843 0 8.535156 3.820312 8.535156 8.53125 0 4.714843-3.820313 8.535156-8.535156 8.535156zm0 0" fill="#fff"/><path d="m384 119.964844c-4.710938 0-8.535156-3.820313-8.535156-8.53125v-34.132813c0-4.714843 3.824218-8.535156 8.535156-8.535156h17.066406c4.714844 0 8.535156 3.820313 8.535156 8.535156 0 4.710938-3.820312 8.53125-8.535156 8.53125h-8.53125v25.601563c0 4.710937-3.824218 8.53125-8.535156 8.53125zm0 0" fill="#fff"/><path d="m401.066406 111.433594h-17.066406c-4.710938 0-8.535156-3.820313-8.535156-8.535156 0-4.710938 3.824218-8.53125 8.535156-8.53125h17.066406c4.714844 0 8.535156 3.820312 8.535156 8.53125 0 4.714843-3.820312 8.535156-8.535156 8.535156zm0 0" fill="#fff"/></svg>
